<svg xmlns="http://www.w3.org/2000/svg" width="69" height="70" viewBox="0 0 69 70">
    <g fill="#E4C800" fill-rule="evenodd">
        <path d="M36.786 14.883c-.019.203-.045.403-.045.609 0 4.797 3.724 8.683 8.315 8.683 4.59 0 8.31-3.887 8.31-8.683 0-.207-.028-.408-.042-.61H36.786zM55.622 11.193c-.544-4.82-3.329-8.773-7.057-10.32v7.416a.795.795 0 0 1-1.589 0V.373a8.93 8.93 0 0 0-1.894-.212 8.8 8.8 0 0 0-1.88.214v7.914a.794.794 0 1 1-1.587 0V.876c-3.721 1.555-6.524 5.523-7.103 10.317h-2.747v2.066h26.611v-2.066h-2.754z"/>
        <path d="M56.252 26.33l-3.574-.002-5.518 12.264V26.087h-3.813v12.38l-5.464-12.146-3.57-.001c-5.816 0-10.28 4.201-11.23 9.803l-4.58-15.904a1.11 1.11 0 0 0-.806-.773l-7.55-1.818c-2.38-.27-4.302.092-5.868 1.111-1.845 1.2-3.147 2.906-3.668 4.808-.486 1.778-.22 3.63.67 5.305.011.03.007.058.02.087l10.277 21.976-.71.35c-5.164 2.538-1.478 10.033 3.687 7.492l.563-.275 3.58 7.653c.577 1.238 1.688 2.223 3.045 2.705a5.991 5.991 0 0 0 2.01.338c1.065 0 2.172-.264 3.243-.787 3.073-1.5 4.441-4.664 3.183-7.36l-.052-.11a1.116 1.116 0 0 0-.035-.445l-.75-2.61c.514-.675.862-1.567.862-2.733V39.119h2.329l-.004 28.515h25.95l.01-28.515h2.28v24.466c0 5.58 7.273 5.58 7.258 0V38.527c0-6.16-4.564-12.197-11.775-12.197zM3.47 28.265c-.848-1.305-1.094-2.734-.713-4.131.374-1.374 1.346-2.628 2.734-3.53 1.132-.736 2.527-.98 4.268-.791l6.786 1.643 7.805 27.108L13.23 24.78c-.02-.041-.054-.067-.078-.104a5.693 5.693 0 0 0-.524-1.02 4.74 4.74 0 0 0-6.55-1.385 4.016 4.016 0 0 0-1.175 5.546 3.437 3.437 0 0 0 4.744 1.007 2.973 2.973 0 0 0 .87-4.102 2.609 2.609 0 0 0-.612-.661c.336.192.631.462.856.808 1.028 1.58.58 3.7-.997 4.726a4.556 4.556 0 0 1-6.294-1.33zm22.551 38.127c-1.228.6-2.485.719-3.535.35-.8-.283-1.446-.846-1.774-1.549L17.115 57.5l.187-.092c5.164-2.535 1.478-10.034-3.687-7.491l-.037.02L5.293 32.22c1.856.57 3.932.374 5.684-.76a5.584 5.584 0 0 0 1.913-2.156l15.273 32.666c.731 1.567-.19 3.468-2.142 4.42z"/>
    </g>
</svg>
