<svg xmlns="http://www.w3.org/2000/svg" width="93" height="70" viewBox="0 0 93 70">
    <g fill="#E4C800" fill-rule="evenodd">
        <path d="M42.134 41.244c.034 2.73 2.015 4.936 4.433 4.913.985-.01 1.802.873 1.813 1.981.011 1.109-.783 2.026-1.768 2.038-.985.01-1.802-.885-1.814-2.004v-.336l-2.596.023.01.335c.012 1.41.55 2.698 1.422 3.604l-18.166-11.73v-7.577H47.72v.962l-2.597.023.034 3.022c-1.814.638-3.045 2.552-3.023 4.746zM55.711 30.252H37.534l8.977-6.122zM70.106 41.3v27.59L48.794 55.134l20.36-13.23zM67.42 69.82H26.038l20.662-13.376.034.022zM44.642 55.112L23.364 68.89V41.378zM77.347 45.183h15.536v2.239H77.347zM73.806 31.934l-1.119-1.936 13.451-7.774 1.119 1.936zM70.744 6.837L62.976 20.29l-1.937-1.119 7.757-13.454zM45.537.087h2.24v15.525h-2.24z"/>
        <path d="M47.72 32.49v.963l.033 3.011c1.836.605 3.123 2.496 3.146 4.69v.336l-2.597.033v-.347c-.011-1.119-.817-2.014-1.802-2.003-.985.011-1.78.929-1.769 2.048.011 1.097.84 2.015 1.802 2.004 2.418-.034 4.41 2.16 4.433 4.88.022 1.847-.873 3.503-2.261 4.376l18.927-12.256v-7.734H47.72zM24.517 5.717l7.757 13.454-1.937 1.12L22.57 6.836zM6.062 24.157l1.118-1.936 13.451 7.774-1.118 1.936zM.765 45.027h15.536v2.239H.765z"/>
    </g>
</svg>
